<svg width="201" height="31" viewBox="0 0 201 31" fill="none" xmlns="http://www.w3.org/2000/svg">
<g filter="url(#filter0_i_355_2)">
<path d="M29.8845 26C29.3418 26 28.8505 25.868 28.4105 25.604C27.9705 25.3253 27.6111 24.966 27.3325 24.526C27.0685 24.086 26.9365 23.5947 26.9365 23.052V16.188C26.9365 15.6453 27.0685 15.154 27.3325 14.714C27.6111 14.274 27.9705 13.922 28.4105 13.658C28.8505 13.3793 29.3418 13.24 29.8845 13.24H39.8725V15.858H29.9725C29.8551 15.858 29.7525 15.902 29.6645 15.99C29.5911 16.0633 29.5545 16.1587 29.5545 16.276V22.964C29.5545 23.0813 29.5911 23.184 29.6645 23.272C29.7525 23.3453 29.8551 23.382 29.9725 23.382H39.8945V26H29.8845ZM45.4233 30.796V28.156H53.1893C53.292 28.156 53.38 28.112 53.4533 28.024C53.5413 27.9507 53.5853 27.8627 53.5853 27.76V26H46.1933C45.6653 26 45.174 25.868 44.7193 25.604C44.2793 25.3253 43.92 24.966 43.6413 24.526C43.3773 24.086 43.2453 23.5947 43.2453 23.052V13.284H45.8633V22.964C45.8633 23.0813 45.9 23.184 45.9733 23.272C46.0613 23.3453 46.164 23.382 46.2813 23.382H53.1893C53.292 23.382 53.38 23.3453 53.4533 23.272C53.5413 23.184 53.5853 23.0813 53.5853 22.964V13.284H56.2033V27.848C56.2033 28.4053 56.0713 28.904 55.8073 29.344C55.558 29.784 55.206 30.136 54.7513 30.4C54.3113 30.664 53.82 30.796 53.2773 30.796H45.4233ZM59.7799 26V9.06H62.3979V13.24H69.8119C70.3399 13.24 70.8239 13.3793 71.2639 13.658C71.7185 13.922 72.0779 14.274 72.3419 14.714C72.6059 15.154 72.7379 15.6453 72.7379 16.188V23.052C72.7379 23.5947 72.6059 24.086 72.3419 24.526C72.0779 24.966 71.7185 25.3253 71.2639 25.604C70.8239 25.868 70.3399 26 69.8119 26H59.7799ZM62.8159 23.382H69.7239C69.8265 23.382 69.9145 23.3453 69.9879 23.272C70.0759 23.184 70.1199 23.0813 70.1199 22.964V16.276C70.1199 16.1587 70.0759 16.0633 69.9879 15.99C69.9145 15.902 69.8265 15.858 69.7239 15.858H62.8159C62.7132 15.858 62.6179 15.902 62.5299 15.99C62.4419 16.0633 62.3979 16.1587 62.3979 16.276V22.964C62.3979 23.0813 62.4419 23.184 62.5299 23.272C62.6179 23.3453 62.7132 23.382 62.8159 23.382ZM78.5457 26C78.003 26 77.5117 25.868 77.0717 25.604C76.6317 25.3253 76.2724 24.966 75.9937 24.526C75.7297 24.086 75.5977 23.5947 75.5977 23.052V16.188C75.5977 15.6453 75.7297 15.154 75.9937 14.714C76.2724 14.274 76.6317 13.922 77.0717 13.658C77.5117 13.3793 78.003 13.24 78.5457 13.24H85.6077C86.165 13.24 86.6637 13.3793 87.1037 13.658C87.5437 13.922 87.8957 14.274 88.1597 14.714C88.4237 15.154 88.5557 15.6453 88.5557 16.188V20.94H78.2157V22.964C78.2157 23.0813 78.2524 23.184 78.3257 23.272C78.4137 23.3453 78.5164 23.382 78.6337 23.382H88.5557V26H78.5457ZM78.2157 18.542H85.9377V16.276C85.9377 16.1587 85.8937 16.0633 85.8057 15.99C85.7324 15.902 85.637 15.858 85.5197 15.858H78.6337C78.5164 15.858 78.4137 15.902 78.3257 15.99C78.2524 16.0633 78.2157 16.1587 78.2157 16.276V18.542ZM91.9332 26V16.188C91.9332 15.6453 92.0652 15.154 92.3292 14.714C92.6079 14.274 92.9672 13.922 93.4072 13.658C93.8619 13.3793 94.3532 13.24 94.8812 13.24H101.987V15.858H94.9692C94.8519 15.858 94.7492 15.902 94.6612 15.99C94.5879 16.0633 94.5512 16.1587 94.5512 16.276V26H91.9332ZM107.648 26C107.105 26 106.614 25.868 106.174 25.604C105.734 25.3253 105.374 24.966 105.096 24.526C104.832 24.086 104.7 23.5947 104.7 23.052V22.634H107.318V22.964C107.318 23.0813 107.354 23.184 107.428 23.272C107.516 23.3453 107.618 23.382 107.736 23.382H114.622C114.739 23.382 114.834 23.3453 114.908 23.272C114.996 23.184 115.04 23.0813 115.04 22.964V21.336C115.04 21.2333 114.996 21.1453 114.908 21.072C114.834 20.984 114.739 20.94 114.622 20.94H107.648C107.105 20.94 106.614 20.808 106.174 20.544C105.734 20.2653 105.374 19.906 105.096 19.466C104.832 19.026 104.7 18.5347 104.7 17.992V16.188C104.7 15.6453 104.832 15.154 105.096 14.714C105.374 14.274 105.734 13.922 106.174 13.658C106.614 13.3793 107.105 13.24 107.648 13.24H114.71C115.267 13.24 115.766 13.3793 116.206 13.658C116.646 13.922 116.998 14.274 117.262 14.714C117.54 15.154 117.68 15.6453 117.68 16.188V16.606H115.04V16.276C115.04 16.1587 114.996 16.0633 114.908 15.99C114.834 15.902 114.739 15.858 114.622 15.858H107.736C107.618 15.858 107.516 15.902 107.428 15.99C107.354 16.0633 107.318 16.1587 107.318 16.276V17.904C107.318 18.0067 107.354 18.102 107.428 18.19C107.516 18.2633 107.618 18.3 107.736 18.3H114.71C115.267 18.3 115.766 18.4393 116.206 18.718C116.646 18.982 116.998 19.334 117.262 19.774C117.54 20.214 117.68 20.7053 117.68 21.248V23.052C117.68 23.5947 117.54 24.086 117.262 24.526C116.998 24.966 116.646 25.3253 116.206 25.604C115.766 25.868 115.267 26 114.71 26H107.648ZM121.124 26V9.06H123.742V13.24H131.156C131.684 13.24 132.168 13.3793 132.608 13.658C133.062 13.922 133.422 14.274 133.686 14.714C133.95 15.154 134.082 15.6453 134.082 16.188V26H131.464V16.276C131.464 16.1587 131.42 16.0633 131.332 15.99C131.258 15.902 131.17 15.858 131.068 15.858H124.16C124.057 15.858 123.962 15.902 123.874 15.99C123.786 16.0633 123.742 16.1587 123.742 16.276V26H121.124ZM139.955 26C139.412 26 138.914 25.868 138.459 25.604C138.019 25.3253 137.667 24.966 137.403 24.526C137.139 24.086 137.007 23.5947 137.007 23.052V13.24H139.625V22.964C139.625 23.0813 139.662 23.184 139.735 23.272C139.823 23.3453 139.926 23.382 140.043 23.382H146.929C147.046 23.382 147.142 23.3453 147.215 23.272C147.303 23.184 147.347 23.0813 147.347 22.964V13.24H149.965V23.052C149.965 23.5947 149.833 24.086 149.569 24.526C149.305 24.966 148.953 25.3253 148.513 25.604C148.073 25.868 147.574 26 147.017 26H139.955ZM156.032 26C155.49 26 154.991 25.868 154.536 25.604C154.096 25.3253 153.744 24.966 153.48 24.526C153.216 24.086 153.084 23.5947 153.084 23.052V9.258H155.702V13.24H160.806V15.858H155.702V22.964C155.702 23.0813 155.739 23.184 155.812 23.272C155.9 23.3453 156.003 23.382 156.12 23.382H160.806V26H156.032ZM166.846 26C166.303 26 165.804 25.868 165.35 25.604C164.91 25.3253 164.558 24.966 164.294 24.526C164.03 24.086 163.898 23.5947 163.898 23.052V9.258H166.516V13.24H171.62V15.858H166.516V22.964C166.516 23.0813 166.552 23.184 166.626 23.272C166.714 23.3453 166.816 23.382 166.934 23.382H171.62V26H166.846ZM177.53 26C176.987 26 176.496 25.868 176.056 25.604C175.616 25.3253 175.257 24.966 174.978 24.526C174.714 24.086 174.582 23.5947 174.582 23.052V9.038H177.222V22.964C177.222 23.0813 177.259 23.184 177.332 23.272C177.42 23.3453 177.515 23.382 177.618 23.382H179.994V26H177.53ZM185.722 26C185.179 26 184.688 25.868 184.248 25.604C183.808 25.3253 183.448 24.966 183.17 24.526C182.906 24.086 182.774 23.5947 182.774 23.052V16.188C182.774 15.6453 182.906 15.154 183.17 14.714C183.448 14.274 183.808 13.922 184.248 13.658C184.688 13.3793 185.179 13.24 185.722 13.24H192.784C193.341 13.24 193.84 13.3793 194.28 13.658C194.72 13.922 195.072 14.274 195.336 14.714C195.6 15.154 195.732 15.6453 195.732 16.188V20.94H185.392V22.964C185.392 23.0813 185.428 23.184 185.502 23.272C185.59 23.3453 185.692 23.382 185.81 23.382H195.732V26H185.722ZM185.392 18.542H193.114V16.276C193.114 16.1587 193.07 16.0633 192.982 15.99C192.908 15.902 192.813 15.858 192.696 15.858H185.81C185.692 15.858 185.59 15.902 185.502 15.99C185.428 16.0633 185.392 16.1587 185.392 16.276V18.542Z" fill="url(#paint0_radial_355_2)"/>
</g>
<g filter="url(#filter1_i_355_2)">
<path fill-rule="evenodd" clip-rule="evenodd" d="M9.03427 10H13.1408V10.0001L19.6008 14.9585V18.0915H0L2.30777 14.9585H15.0949L12.6946 13.2185L11.4982 13.2186L9.03427 10Z" fill="#0071BC"/>
</g>
<g filter="url(#filter2_i_355_2)">
<path d="M17.5067 25.2246H0.213654V22.0915H19.8145L17.5067 25.2246Z" fill="#0071BC"/>
<path d="M10.7802 30.183L6.67365 30.1831L7.0843 26.9645H8.31625L10.7802 30.183Z" fill="#0071BC"/>
<path d="M6.67369 30.183L0.213562 25.2245L3.75839 24.5279L7.17806 27.0068L6.67369 30.183Z" fill="#0071BC"/>
</g>
<defs>
<filter id="filter0_i_355_2" x="26.9365" y="9.038" width="168.796" height="25.758" filterUnits="userSpaceOnUse" color-interpolation-filters="sRGB">
<feFlood flood-opacity="0" result="BackgroundImageFix"/>
<feBlend mode="normal" in="SourceGraphic" in2="BackgroundImageFix" result="shape"/>
<feColorMatrix in="SourceAlpha" type="matrix" values="0 0 0 0 0 0 0 0 0 0 0 0 0 0 0 0 0 0 127 0" result="hardAlpha"/>
<feOffset dy="4"/>
<feGaussianBlur stdDeviation="2"/>
<feComposite in2="hardAlpha" operator="arithmetic" k2="-1" k3="1"/>
<feColorMatrix type="matrix" values="0 0 0 0 0 0 0 0 0 0 0 0 0 0 0 0 0 0 0.25 0"/>
<feBlend mode="normal" in2="shape" result="effect1_innerShadow_355_2"/>
</filter>
<filter id="filter1_i_355_2" x="0" y="10" width="19.6008" height="12.0915" filterUnits="userSpaceOnUse" color-interpolation-filters="sRGB">
<feFlood flood-opacity="0" result="BackgroundImageFix"/>
<feBlend mode="normal" in="SourceGraphic" in2="BackgroundImageFix" result="shape"/>
<feColorMatrix in="SourceAlpha" type="matrix" values="0 0 0 0 0 0 0 0 0 0 0 0 0 0 0 0 0 0 127 0" result="hardAlpha"/>
<feOffset dy="4"/>
<feGaussianBlur stdDeviation="2"/>
<feComposite in2="hardAlpha" operator="arithmetic" k2="-1" k3="1"/>
<feColorMatrix type="matrix" values="0 0 0 0 0 0 0 0 0 0 0 0 0 0 0 0 0 0 0.25 0"/>
<feBlend mode="normal" in2="shape" result="effect1_innerShadow_355_2"/>
</filter>
<filter id="filter2_i_355_2" x="0.213562" y="22.0915" width="19.601" height="12.0916" filterUnits="userSpaceOnUse" color-interpolation-filters="sRGB">
<feFlood flood-opacity="0" result="BackgroundImageFix"/>
<feBlend mode="normal" in="SourceGraphic" in2="BackgroundImageFix" result="shape"/>
<feColorMatrix in="SourceAlpha" type="matrix" values="0 0 0 0 0 0 0 0 0 0 0 0 0 0 0 0 0 0 127 0" result="hardAlpha"/>
<feOffset dy="4"/>
<feGaussianBlur stdDeviation="2"/>
<feComposite in2="hardAlpha" operator="arithmetic" k2="-1" k3="1"/>
<feColorMatrix type="matrix" values="0 0 0 0 0 0 0 0 0 0 0 0 0 0 0 0 0 0 0.25 0"/>
<feBlend mode="normal" in2="shape" result="effect1_innerShadow_355_2"/>
</filter>
<radialGradient id="paint0_radial_355_2" cx="0" cy="0" r="1" gradientUnits="userSpaceOnUse" gradientTransform="translate(113.314 15) rotate(90.0001) scale(9 246.806)">
<stop offset="0.198203" stop-color="#2793DB"/>
<stop offset="1" stop-color="#046BB0"/>
</radialGradient>
</defs>
</svg>
