<svg id="Layer_1" data-name="Layer 1" xmlns="http://www.w3.org/2000/svg" xmlns:xlink="http://www.w3.org/1999/xlink" viewBox="0 0 689 578"><defs><style>.cls-1{fill:none;}.cls-2{clip-path:url(#clip-path);}.cls-3{fill:#ecebf5;}.cls-4{fill:url(#linear-gradient);}.cls-5{fill:url(#linear-gradient-2);}.cls-6{fill:url(#linear-gradient-3);}.cls-7{fill:url(#linear-gradient-4);}.cls-8{fill:url(#linear-gradient-5);}.cls-9{fill:url(#linear-gradient-6);}.cls-10{fill:url(#linear-gradient-7);}.cls-11{fill:#fff;}.cls-12{fill:url(#linear-gradient-8);}.cls-13{fill:url(#linear-gradient-9);}.cls-14{fill:url(#linear-gradient-10);}.cls-15{fill:url(#linear-gradient-11);}.cls-16{fill:url(#linear-gradient-12);}.cls-17{fill:url(#linear-gradient-13);}.cls-18{fill:url(#linear-gradient-14);}.cls-19{fill:url(#linear-gradient-15);}.cls-20{fill:url(#linear-gradient-16);}.cls-21{fill:url(#linear-gradient-17);}.cls-22{fill:#dbe4ec;}.cls-23{fill:url(#linear-gradient-18);}.cls-24{fill:url(#linear-gradient-19);}.cls-25{fill:url(#linear-gradient-20);}.cls-26{fill:url(#linear-gradient-21);}.cls-27{fill:url(#linear-gradient-22);}.cls-28{fill:url(#linear-gradient-23);}.cls-29{fill:url(#linear-gradient-24);}.cls-30{fill:url(#linear-gradient-25);}.cls-31{fill:url(#linear-gradient-26);}.cls-32{fill:url(#linear-gradient-27);}.cls-33{fill:url(#linear-gradient-28);}.cls-34{fill:url(#linear-gradient-29);}.cls-35{fill:url(#linear-gradient-30);}.cls-36{fill:url(#linear-gradient-31);}.cls-37{fill:url(#linear-gradient-32);}.cls-38{fill:url(#linear-gradient-33);}.cls-39{fill:url(#linear-gradient-34);}.cls-40{fill:url(#linear-gradient-35);}.cls-41{fill:url(#linear-gradient-36);}.cls-42{fill:url(#linear-gradient-37);}.cls-43{fill:url(#linear-gradient-38);}.cls-44{fill:url(#linear-gradient-39);}.cls-45{fill:url(#linear-gradient-40);}.cls-46{fill:url(#linear-gradient-41);}.cls-47{fill:url(#linear-gradient-42);}.cls-48{fill:url(#linear-gradient-43);}.cls-49{fill:url(#linear-gradient-44);}.cls-50{fill:url(#linear-gradient-45);}.cls-51{fill:url(#linear-gradient-46);}.cls-52{fill:url(#linear-gradient-47);}.cls-53{fill:url(#linear-gradient-48);}.cls-54{fill:url(#linear-gradient-49);}.cls-55{fill:url(#linear-gradient-50);}.cls-56{fill:url(#linear-gradient-51);}.cls-57{fill:url(#linear-gradient-52);}.cls-58{fill:url(#linear-gradient-53);}.cls-59{fill:url(#linear-gradient-54);}.cls-60{fill:url(#linear-gradient-55);}.cls-61{fill:url(#linear-gradient-56);}.cls-62{fill:url(#linear-gradient-57);}.cls-63{fill:url(#linear-gradient-58);}.cls-64{fill:url(#linear-gradient-59);}.cls-65{fill:url(#linear-gradient-60);}.cls-66{fill:url(#linear-gradient-61);}.cls-67{fill:url(#linear-gradient-62);}.cls-68{fill:url(#linear-gradient-63);}.cls-69{fill:url(#linear-gradient-64);}.cls-70{fill:url(#linear-gradient-65);}.cls-71{fill:url(#linear-gradient-66);}.cls-72{fill:url(#linear-gradient-67);}.cls-73{fill:url(#linear-gradient-68);}.cls-74{fill:url(#linear-gradient-69);}.cls-75{fill:url(#linear-gradient-70);}.cls-76{fill:url(#linear-gradient-71);}.cls-77{fill:url(#linear-gradient-72);}.cls-78{fill:url(#linear-gradient-73);}.cls-79{fill:url(#linear-gradient-74);}.cls-80{fill:url(#linear-gradient-75);}.cls-81{fill:url(#linear-gradient-76);}.cls-82{fill:url(#linear-gradient-77);}.cls-83{fill:url(#linear-gradient-78);}.cls-84{fill:url(#linear-gradient-79);}.cls-85{fill:url(#linear-gradient-80);}.cls-86{fill:url(#linear-gradient-81);}.cls-87{fill:url(#linear-gradient-82);}.cls-88{fill:url(#linear-gradient-83);}.cls-89{fill:url(#linear-gradient-84);}.cls-90{fill:url(#linear-gradient-85);}.cls-91{fill:url(#linear-gradient-86);}.cls-92{fill:url(#linear-gradient-87);}.cls-93{fill:url(#linear-gradient-88);}.cls-94{fill:url(#linear-gradient-89);}.cls-95{fill:url(#linear-gradient-90);}.cls-96{fill:url(#linear-gradient-91);}.cls-97{fill:url(#linear-gradient-92);}.cls-98{fill:url(#linear-gradient-93);}.cls-99{fill:url(#linear-gradient-94);}.cls-100{fill:url(#linear-gradient-95);}.cls-101{fill:url(#linear-gradient-96);}.cls-102{fill:url(#linear-gradient-97);}.cls-103{fill:url(#linear-gradient-98);}.cls-104{fill:url(#linear-gradient-99);}.cls-105{fill:url(#linear-gradient-100);}.cls-106{fill:url(#linear-gradient-101);}.cls-107{fill:url(#linear-gradient-102);}.cls-108{fill:url(#linear-gradient-103);}.cls-109{fill:url(#linear-gradient-104);}.cls-110{fill:url(#linear-gradient-105);}.cls-111{fill:url(#linear-gradient-106);}.cls-112{fill:url(#linear-gradient-107);}.cls-113{fill:url(#linear-gradient-108);}.cls-114{fill:url(#linear-gradient-109);}.cls-115{fill:url(#linear-gradient-110);}.cls-116{fill:url(#linear-gradient-111);}.cls-117{fill:url(#linear-gradient-112);}.cls-118{fill:url(#linear-gradient-113);}.cls-119{fill:#e6e6e6;}.cls-120{fill:url(#linear-gradient-114);}</style><clipPath id="clip-path"><rect class="cls-1" width="689" height="578"/></clipPath><linearGradient id="linear-gradient" x1="271.7" y1="-1153.44" x2="406.01" y2="-1153.44" gradientTransform="matrix(1, 0, 0, -1, -106, -995.48)" gradientUnits="userSpaceOnUse"><stop offset="0" stop-color="#abffff"/><stop offset="1" stop-color="#38b5f2"/></linearGradient><linearGradient id="linear-gradient-2" x1="502.48" y1="-1284.35" x2="795.03" y2="-1284.35" xlink:href="#linear-gradient"/><linearGradient id="linear-gradient-3" x1="209.62" y1="-1352.72" x2="460.09" y2="-1352.72" xlink:href="#linear-gradient"/><linearGradient id="linear-gradient-4" x1="412.3" y1="-1206.13" x2="581.17" y2="-1206.13" xlink:href="#linear-gradient"/><linearGradient id="linear-gradient-5" x1="251.87" y1="-1533.04" x2="445.51" y2="-1533.04" gradientTransform="matrix(1, 0, 0, -1, -106, -995.48)" gradientUnits="userSpaceOnUse"><stop offset="0" stop-color="#03d9fe"/><stop offset="1" stop-color="#5a54ce"/></linearGradient><linearGradient id="linear-gradient-6" x1="251.86" y1="-1506.31" x2="509.02" y2="-1506.31" xlink:href="#linear-gradient"/><linearGradient id="linear-gradient-7" x1="330.46" y1="-1442.02" x2="445.52" y2="-1442.02" xlink:href="#linear-gradient-5"/><linearGradient id="linear-gradient-8" x1="289.2" y1="-1497.33" x2="432.96" y2="-1497.33" gradientTransform="matrix(1, 0, 0, -1, -106, -995.48)" gradientUnits="userSpaceOnUse"><stop offset="0" stop-color="#67e5f1"/><stop offset="1" stop-color="#5f6cd9"/></linearGradient><linearGradient id="linear-gradient-9" x1="295.78" y1="-1520.41" x2="348.89" y2="-1520.41" xlink:href="#linear-gradient-8"/><linearGradient id="linear-gradient-10" x1="335.84" y1="-1382.72" x2="434.56" y2="-1499.74" gradientTransform="matrix(1, 0, 0, -1, -106, -995.48)" gradientUnits="userSpaceOnUse"><stop offset="0"/><stop offset="1" stop-color="#0071bc"/></linearGradient><linearGradient id="linear-gradient-11" x1="219.85" y1="-1156.53" x2="397.82" y2="-1156.53" xlink:href="#linear-gradient-5"/><linearGradient id="linear-gradient-12" x1="219.84" y1="-1131.97" x2="456.18" y2="-1131.97" xlink:href="#linear-gradient"/><linearGradient id="linear-gradient-13" x1="292.08" y1="-1072.87" x2="397.83" y2="-1072.87" xlink:href="#linear-gradient-5"/><linearGradient id="linear-gradient-14" x1="254.16" y1="-1123.7" x2="386.28" y2="-1123.7" xlink:href="#linear-gradient-8"/><linearGradient id="linear-gradient-15" x1="260.2" y1="-1144.91" x2="309.01" y2="-1144.91" xlink:href="#linear-gradient-8"/><linearGradient id="linear-gradient-16" x1="297.02" y1="-1018.36" x2="387.75" y2="-1125.92" gradientTransform="matrix(1, 0, 0, -1, -106, -995.48)" gradientUnits="userSpaceOnUse"><stop offset="0" stop-color="#0071bc"/><stop offset="1"/></linearGradient><linearGradient id="linear-gradient-17" x1="668.16" y1="-1391.46" x2="726" y2="-1391.46" xlink:href="#linear-gradient-8"/><linearGradient id="linear-gradient-18" x1="698.86" y1="-1392.52" x2="729.51" y2="-1392.52" xlink:href="#linear-gradient-5"/><linearGradient id="linear-gradient-19" x1="726.68" y1="-1322.83" x2="768.03" y2="-1346.5" xlink:href="#linear-gradient-5"/><linearGradient id="linear-gradient-20" x1="636.85" y1="-1217.63" x2="779.87" y2="-1396.09" gradientTransform="matrix(1, 0, 0, -1, -106, -995.48)" gradientUnits="userSpaceOnUse"><stop offset="0" stop-color="#38b5f2"/><stop offset="1"/></linearGradient><linearGradient id="linear-gradient-21" x1="553.98" y1="-1428.92" x2="728.39" y2="-1428.92" xlink:href="#linear-gradient"/><linearGradient id="linear-gradient-22" x1="553.08" y1="-1447.63" x2="669.78" y2="-1447.63" xlink:href="#linear-gradient-8"/><linearGradient id="linear-gradient-23" x1="668.91" y1="-1461.97" x2="729.53" y2="-1461.97" xlink:href="#linear-gradient-8"/><linearGradient id="linear-gradient-24" x1="703.82" y1="-1489.53" x2="734.88" y2="-1489.53" xlink:href="#linear-gradient-8"/><linearGradient id="linear-gradient-25" x1="691.08" y1="-1488.59" x2="735.58" y2="-1488.59" xlink:href="#linear-gradient-8"/><linearGradient id="linear-gradient-26" x1="199.64" y1="-1289.35" x2="245.51" y2="-1289.35" xlink:href="#linear-gradient-8"/><linearGradient id="linear-gradient-27" x1="223.99" y1="-1290.2" x2="248.3" y2="-1290.2" xlink:href="#linear-gradient-5"/><linearGradient id="linear-gradient-28" x1="246.05" y1="-1234.92" x2="278.84" y2="-1253.7" xlink:href="#linear-gradient-5"/><linearGradient id="linear-gradient-29" x1="174.81" y1="-1151.5" x2="288.24" y2="-1293.03" gradientTransform="matrix(1, 0, 0, -1, -106, -995.48)" gradientUnits="userSpaceOnUse"><stop offset="0" stop-color="#332900"/><stop offset="1" stop-color="#0071bc"/></linearGradient><linearGradient id="linear-gradient-30" x1="109.08" y1="-1319.07" x2="247.41" y2="-1319.07" xlink:href="#linear-gradient"/><linearGradient id="linear-gradient-31" x1="108.37" y1="-1333.9" x2="200.93" y2="-1333.9" xlink:href="#linear-gradient-8"/><linearGradient id="linear-gradient-32" x1="200.24" y1="-1345.28" x2="248.31" y2="-1345.28" xlink:href="#linear-gradient-8"/><linearGradient id="linear-gradient-33" x1="227.93" y1="-1367.13" x2="252.56" y2="-1367.13" xlink:href="#linear-gradient-8"/><linearGradient id="linear-gradient-34" x1="217.82" y1="-1366.39" x2="253.11" y2="-1366.39" xlink:href="#linear-gradient-8"/><linearGradient id="linear-gradient-35" x1="384.39" y1="-1168.93" x2="423.71" y2="-1195.09" xlink:href="#linear-gradient-5"/><linearGradient id="linear-gradient-36" x1="427.83" y1="-1151.87" x2="495.8" y2="-1240.17" xlink:href="#linear-gradient-5"/><linearGradient id="linear-gradient-37" x1="485.1" y1="-1216.65" x2="511.93" y2="-1254.74" xlink:href="#linear-gradient-5"/><linearGradient id="linear-gradient-38" x1="503.47" y1="-1268.58" x2="544.62" y2="-1320.96" xlink:href="#linear-gradient-5"/><linearGradient id="linear-gradient-39" x1="353.73" y1="-1251.16" x2="518.76" y2="-1251.16" xlink:href="#linear-gradient"/><linearGradient id="linear-gradient-40" x1="341.97" y1="-1219.06" x2="367.59" y2="-1236.11" xlink:href="#linear-gradient-5"/><linearGradient id="linear-gradient-41" x1="370.29" y1="-1207.94" x2="414.61" y2="-1265.49" xlink:href="#linear-gradient-5"/><linearGradient id="linear-gradient-42" x1="407.61" y1="-1250.16" x2="425.11" y2="-1275.01" xlink:href="#linear-gradient-5"/><linearGradient id="linear-gradient-43" x1="419.59" y1="-1284.02" x2="446.42" y2="-1318.18" xlink:href="#linear-gradient-5"/><linearGradient id="linear-gradient-44" x1="321.97" y1="-1272.67" x2="429.56" y2="-1272.67" xlink:href="#linear-gradient"/><linearGradient id="linear-gradient-45" x1="571.39" y1="-1145.31" x2="607.89" y2="-1145.31" gradientTransform="matrix(1, 0, 0, -1, -106, -995.48)" gradientUnits="userSpaceOnUse"><stop offset="0" stop-color="#fafafa"/><stop offset="1" stop-color="#c4c4c4"/></linearGradient><linearGradient id="linear-gradient-46" x1="524.04" y1="-1132.51" x2="646.69" y2="-1132.51" xlink:href="#linear-gradient-8"/><linearGradient id="linear-gradient-47" x1="106" y1="-1116.33" x2="107.41" y2="-1116.33" xlink:href="#linear-gradient-45"/><linearGradient id="linear-gradient-48" x1="524.04" y1="-1103.53" x2="646.69" y2="-1103.53" xlink:href="#linear-gradient-8"/><linearGradient id="linear-gradient-49" x1="106" y1="-1087.34" x2="107.41" y2="-1087.34" xlink:href="#linear-gradient-45"/><linearGradient id="linear-gradient-50" x1="524.04" y1="-1074.55" x2="646.69" y2="-1074.55" xlink:href="#linear-gradient-8"/><linearGradient id="linear-gradient-51" x1="565.48" y1="-1058.35" x2="609.89" y2="-1058.35" xlink:href="#linear-gradient-45"/><linearGradient id="linear-gradient-52" x1="407.14" y1="-1048.07" x2="672.51" y2="-1048.07" gradientTransform="matrix(1, 0, 0, -1, -106, -995.48)" gradientUnits="userSpaceOnUse"><stop offset="0" stop-color="#c4c4c4"/><stop offset="0.23" stop-color="#d3d3d3"/><stop offset="0.72" stop-color="#efefef"/><stop offset="1" stop-color="#fafafa"/></linearGradient><linearGradient id="linear-gradient-53" x1="524.41" y1="-1143.03" x2="525.75" y2="-1140.53" gradientTransform="matrix(1, 0, 0, -1, -106, -995.48)" gradientUnits="userSpaceOnUse"><stop offset="0" stop-color="#a8a8a8"/><stop offset="1" stop-color="#fff"/></linearGradient><linearGradient id="linear-gradient-54" x1="533.17" y1="-1154.7" x2="534.23" y2="-1152.86" gradientTransform="matrix(1, 0, 0, -1, -106, -995.48)" gradientUnits="userSpaceOnUse"><stop offset="0" stop-color="#fff"/><stop offset="1" stop-color="#a8a8a8"/></linearGradient><linearGradient id="linear-gradient-55" x1="524.55" y1="-1112.19" x2="555.31" y2="-1130.77" xlink:href="#linear-gradient"/><linearGradient id="linear-gradient-56" x1="522.09" y1="-1116.28" x2="552.85" y2="-1134.84" xlink:href="#linear-gradient-45"/><linearGradient id="linear-gradient-57" x1="524.57" y1="-1112.18" x2="555.31" y2="-1130.74" xlink:href="#linear-gradient"/><linearGradient id="linear-gradient-58" x1="522.11" y1="-1116.27" x2="552.85" y2="-1134.83" xlink:href="#linear-gradient"/><linearGradient id="linear-gradient-59" x1="524.58" y1="-1112.16" x2="555.34" y2="-1130.72" xlink:href="#linear-gradient-45"/><linearGradient id="linear-gradient-60" x1="522.12" y1="-1116.24" x2="552.88" y2="-1134.8" xlink:href="#linear-gradient"/><linearGradient id="linear-gradient-61" x1="524.59" y1="-1112.14" x2="555.34" y2="-1130.71" xlink:href="#linear-gradient"/><linearGradient id="linear-gradient-62" x1="522.13" y1="-1116.22" x2="552.88" y2="-1134.78" xlink:href="#linear-gradient-45"/><linearGradient id="linear-gradient-63" x1="524.55" y1="-1112.21" x2="555.3" y2="-1130.79" xlink:href="#linear-gradient-45"/><linearGradient id="linear-gradient-64" x1="522.08" y1="-1116.3" x2="552.84" y2="-1134.86" xlink:href="#linear-gradient"/><linearGradient id="linear-gradient-65" x1="524.55" y1="-1112.2" x2="555.31" y2="-1130.76" xlink:href="#linear-gradient-45"/><linearGradient id="linear-gradient-66" x1="522.09" y1="-1116.28" x2="552.85" y2="-1134.84" xlink:href="#linear-gradient"/><linearGradient id="linear-gradient-67" x1="524.55" y1="-1057.11" x2="555.31" y2="-1075.67" xlink:href="#linear-gradient"/><linearGradient id="linear-gradient-68" x1="522.1" y1="-1061.19" x2="552.84" y2="-1079.76" xlink:href="#linear-gradient"/><linearGradient id="linear-gradient-69" x1="524.57" y1="-1057.09" x2="555.31" y2="-1075.65" xlink:href="#linear-gradient-45"/><linearGradient id="linear-gradient-70" x1="522.11" y1="-1061.17" x2="552.86" y2="-1079.73" xlink:href="#linear-gradient"/><linearGradient id="linear-gradient-71" x1="524.58" y1="-1057.07" x2="555.34" y2="-1075.63" xlink:href="#linear-gradient"/><linearGradient id="linear-gradient-72" x1="522.12" y1="-1061.15" x2="552.88" y2="-1079.71" xlink:href="#linear-gradient-45"/><linearGradient id="linear-gradient-73" x1="524.59" y1="-1057.05" x2="555.35" y2="-1075.61" xlink:href="#linear-gradient-45"/><linearGradient id="linear-gradient-74" x1="522.13" y1="-1061.12" x2="552.89" y2="-1079.68" xlink:href="#linear-gradient-45"/><linearGradient id="linear-gradient-75" x1="524.54" y1="-1057.13" x2="555.3" y2="-1075.69" xlink:href="#linear-gradient"/><linearGradient id="linear-gradient-76" x1="522.08" y1="-1061.21" x2="552.84" y2="-1079.77" xlink:href="#linear-gradient"/><linearGradient id="linear-gradient-77" x1="524.55" y1="-1057.11" x2="555.31" y2="-1075.67" xlink:href="#linear-gradient"/><linearGradient id="linear-gradient-78" x1="522.09" y1="-1061.19" x2="552.84" y2="-1079.76" xlink:href="#linear-gradient-45"/><linearGradient id="linear-gradient-79" x1="572.58" y1="-1088.62" x2="575.65" y2="-1088.62" xlink:href="#linear-gradient-53"/><linearGradient id="linear-gradient-80" x1="568.69" y1="-1086.34" x2="571.63" y2="-1086.34" xlink:href="#linear-gradient-53"/><linearGradient id="linear-gradient-81" x1="564.8" y1="-1084.05" x2="567.79" y2="-1084.05" xlink:href="#linear-gradient-53"/><linearGradient id="linear-gradient-82" x1="560.91" y1="-1081.77" x2="563.64" y2="-1081.77" xlink:href="#linear-gradient-53"/><linearGradient id="linear-gradient-83" x1="572.58" y1="-1146.1" x2="575.65" y2="-1146.1" xlink:href="#linear-gradient-53"/><linearGradient id="linear-gradient-84" x1="568.69" y1="-1143.82" x2="571.63" y2="-1143.82" xlink:href="#linear-gradient-53"/><linearGradient id="linear-gradient-85" x1="564.8" y1="-1141.54" x2="567.79" y2="-1141.54" xlink:href="#linear-gradient-53"/><linearGradient id="linear-gradient-86" x1="560.91" y1="-1139.26" x2="563.64" y2="-1139.26" xlink:href="#linear-gradient-53"/><linearGradient id="linear-gradient-87" x1="572.58" y1="-1175.64" x2="575.65" y2="-1175.64" xlink:href="#linear-gradient-53"/><linearGradient id="linear-gradient-88" x1="568.69" y1="-1173.36" x2="571.63" y2="-1173.36" xlink:href="#linear-gradient-53"/><linearGradient id="linear-gradient-89" x1="564.8" y1="-1171.08" x2="567.79" y2="-1171.08" xlink:href="#linear-gradient-53"/><linearGradient id="linear-gradient-90" x1="560.91" y1="-1168.79" x2="563.64" y2="-1168.79" xlink:href="#linear-gradient-53"/><linearGradient id="linear-gradient-91" x1="634.58" y1="-1071.61" x2="632.48" y2="-1071.61" xlink:href="#linear-gradient-45"/><linearGradient id="linear-gradient-92" x1="638.45" y1="-1069.33" x2="636.23" y2="-1069.33" xlink:href="#linear-gradient-45"/><linearGradient id="linear-gradient-93" x1="642.34" y1="-1067.05" x2="639.91" y2="-1067.05" xlink:href="#linear-gradient-45"/><linearGradient id="linear-gradient-94" x1="646.24" y1="-1064.77" x2="644.2" y2="-1064.77" xlink:href="#linear-gradient-45"/><linearGradient id="linear-gradient-95" x1="523.21" y1="-1083.96" x2="537.92" y2="-1099.09" gradientTransform="matrix(1, 0, 0, -1, -106, -995.48)" gradientUnits="userSpaceOnUse"><stop offset="0" stop-color="#12c2e9"/><stop offset="1" stop-color="#7d1edc"/></linearGradient><linearGradient id="linear-gradient-96" x1="523.94" y1="-1083.25" x2="538.64" y2="-1098.35" xlink:href="#linear-gradient"/><linearGradient id="linear-gradient-97" x1="521.75" y1="-1086.25" x2="536.44" y2="-1101.34" xlink:href="#linear-gradient-95"/><linearGradient id="linear-gradient-98" x1="522.16" y1="-1085.83" x2="536.86" y2="-1100.93" xlink:href="#linear-gradient"/><linearGradient id="linear-gradient-99" x1="521.24" y1="-1087.59" x2="535.94" y2="-1102.68" xlink:href="#linear-gradient"/><linearGradient id="linear-gradient-100" x1="524.76" y1="-1085.73" x2="538.31" y2="-1099.67" xlink:href="#linear-gradient-45"/><linearGradient id="linear-gradient-101" x1="522.53" y1="-1086.33" x2="537.23" y2="-1101.42" xlink:href="#linear-gradient"/><linearGradient id="linear-gradient-102" x1="525.11" y1="-1082.12" x2="539.8" y2="-1097.21" xlink:href="#linear-gradient"/><linearGradient id="linear-gradient-103" x1="526.12" y1="-1081.13" x2="540.81" y2="-1096.23" xlink:href="#linear-gradient"/><linearGradient id="linear-gradient-104" x1="539.25" y1="-1093.39" x2="553.96" y2="-1108.5" xlink:href="#linear-gradient-95"/><linearGradient id="linear-gradient-105" x1="534.52" y1="-1087.05" x2="549.22" y2="-1102.15" xlink:href="#linear-gradient-45"/><linearGradient id="linear-gradient-106" x1="537.79" y1="-1095.66" x2="552.5" y2="-1110.77" xlink:href="#linear-gradient-95"/><linearGradient id="linear-gradient-107" x1="533.45" y1="-1091.09" x2="564.63" y2="-1123.14" xlink:href="#linear-gradient"/><linearGradient id="linear-gradient-108" x1="531.83" y1="-1092.27" x2="554.9" y2="-1115.97" xlink:href="#linear-gradient-45"/><linearGradient id="linear-gradient-109" x1="539.93" y1="-1093.59" x2="554.63" y2="-1108.68" xlink:href="#linear-gradient"/><linearGradient id="linear-gradient-110" x1="539.44" y1="-1094.91" x2="554.14" y2="-1110.01" xlink:href="#linear-gradient-45"/><linearGradient id="linear-gradient-111" x1="538.59" y1="-1095.75" x2="553.29" y2="-1110.83" xlink:href="#linear-gradient"/><linearGradient id="linear-gradient-112" x1="541.17" y1="-1091.52" x2="555.86" y2="-1106.62" xlink:href="#linear-gradient"/><linearGradient id="linear-gradient-113" x1="542.17" y1="-1090.55" x2="556.86" y2="-1105.65" xlink:href="#linear-gradient-45"/><linearGradient id="linear-gradient-114" x1="543.2" y1="-1157" x2="551.09" y2="-1166.65" xlink:href="#linear-gradient-45"/></defs><g class="cls-2"><path class="cls-3" d="M169.65,160.15,299,234.94l1.05-1.82L170.69,158.34a5.82,5.82,0,0,1,0-10.08l65.39-38.07-1-1.81-65.39,38.07a7.92,7.92,0,0,0,0,13.7Z"/><path class="cls-3" d="M685.05,324l-160.5-92.83a21.57,21.57,0,0,0-21.55,0l-106.52,62,1,1.82,106.53-62a19.42,19.42,0,0,1,19.45,0L684,325.8a5.84,5.84,0,0,1,0,10.09L616.82,375l1,1.81,67.23-39.15a7.92,7.92,0,0,0,0-13.7Z"/><path class="cls-3" d="M353.05,271.86,214.91,352.27,104.67,288.51l-1,1.82,110.76,64.06,134.45,77.76a2.4,2.4,0,0,1,0,4.14L294,468.2l1,1.82,54.83-31.92a4.48,4.48,0,0,0,0-7.75L217,353.49l137.1-79.82Z"/><path class="cls-3" d="M474.11,174.59,306.29,272.27l1.06,1.82L475.16,176.4Z"/><path class="cls-3" d="M542.17,169.8c3.6,2.08,3.63,5.46.05,7.54l-53,30.6a14.28,14.28,0,0,1-13,0L416.7,173.26c-3.6-2.08-3.62-5.46-.05-7.54l53-30.6a14.28,14.28,0,0,1,13,0Z"/><path class="cls-3" d="M313.46,533.1c3.54,2,3.56,5.37,0,7.41l-61.7,36a14.09,14.09,0,0,1-12.77,0l-90.7-52.13c-3.54-2-3.57-5.37-.05-7.41L210,481a14,14,0,0,1,12.77,0l90.7,52.12Z"/><path class="cls-3" d="M340.58,329.73c3.54,2,3.57,5.37,0,7.41l-14.85,9a14.11,14.11,0,0,1-12.78,0L222.29,294c-3.54-2-3.56-5.37,0-7.41l14.85-9a14.11,14.11,0,0,1,12.78,0Z"/><path class="cls-3" d="M438.2,332.32c3.54,2,3.57,5.37,0,7.41L410,356.27a14.11,14.11,0,0,1-12.78,0l-149.7-86.59c-3.53-2-3.55-5.38,0-7.42l28.3-16.54a14.09,14.09,0,0,1,12.77,0Z"/><path class="cls-3" d="M268.33,113.11,209.06,78.76a14.09,14.09,0,0,0-12.77,0L179.23,88c-3.51,2-3.5,5.37,0,7.41l14,8.17-10.67,5.71c-3.5,2-3.49,5.37.05,7.41l19.36,11a14.11,14.11,0,0,0,12.78,0l10.43-5.58,13.3,7.64a14.09,14.09,0,0,0,12.77,0l17.07-9.27c3.52-2.06,3.49-5.37-.05-7.41Z"/><path class="cls-3" d="M583.48,453.47c2.41,1.39,2.43,3.64,0,5l-36.16,20.77a9.51,9.51,0,0,1-8.66,0L456,432.33c-2.41-1.38-2.42-3.64,0-5l36.16-20.77a9.51,9.51,0,0,1,8.66,0Z"/><path class="cls-3" d="M638.89,442.93,518.31,372.78a6.06,6.06,0,0,0-5.53,0c-1.53.89-1.52,2.33,0,3.22l46.62,27.11-12.76,7.47c-1.53.89-1.52,2.32,0,3.22l21.87,12.51a6.12,6.12,0,0,0,5.53,0L586.64,419l46.75,27.2a6.12,6.12,0,0,0,5.53,0c1.53-.89,1.51-2.32,0-3.22Z"/><path class="cls-3" d="M594.14,479.39c2.06,1.19,2.08,3.13,0,4.32l-19.1,11.14a8.2,8.2,0,0,1-7.44,0l-4.38-2.65c-2.06-1.19-2.08-3.13,0-4.32l19.1-11.13a8.22,8.22,0,0,1,7.45,0l4.37,2.65Z"/><path class="cls-3" d="M146.32,274.17c2.06,1.19,2.08,3.13,0,4.32L90.66,311a8.14,8.14,0,0,1-7.44,0l-2.87-1.73c-2.07-1.19-2.08-3.13,0-4.32L136,272.44a8.24,8.24,0,0,1,7.46,0l2.87,1.73Z"/><path class="cls-4" d="M169.65,146.45,299,221.23l1.05-1.81L170.69,144.63a5.82,5.82,0,0,1,0-10.08l65.39-38.06-1-1.82-65.39,38.07a7.93,7.93,0,0,0,0,13.71Z"/><path class="cls-5" d="M685.05,310.28l-160.5-92.83a21.55,21.55,0,0,0-21.55,0l-106.52,62,1,1.81,106.53-62a19.45,19.45,0,0,1,19.45,0L684,312.09a5.84,5.84,0,0,1,0,10.09l-67.23,39.15,1,1.81L685.09,324a7.93,7.93,0,0,0,0-13.71Z"/><path class="cls-6" d="M353.05,258.15,214.91,338.57,104.67,274.81l-1,1.81,110.76,64.06,134.45,77.77a2.33,2.33,0,0,1,1.19,2.06,2.36,2.36,0,0,1-1.19,2.07L294,454.5l1,1.81,54.83-31.91a4.49,4.49,0,0,0,0-7.76L217,339.79,354.09,260Z"/><path class="cls-7" d="M474.12,160.89,306.3,258.58l1.06,1.81,167.81-97.68Z"/><path class="cls-8" d="M257.54,567.59l-111.67-64v2.53a4.88,4.88,0,0,0,2.42,4.23L251.73,570a11.32,11.32,0,0,0,11.39,0l73.12-42.57a6.54,6.54,0,0,0,3.27-5.66v-3.3l-82,49.14Z"/><path class="cls-9" d="M339.54,518.44l-77.29,49.49a9.36,9.36,0,0,1-9.67.18l-105-60.51a3.39,3.39,0,0,1-.1-5.81l77.29-49.5Z"/><path class="cls-10" d="M230.6,373.3a4.87,4.87,0,0,0-4.87.05l-1.27.77L334.6,439.43l2.28,81,2.64-1.52V442a9.81,9.81,0,0,0-4.89-8.48l-104-60.19Z"/><path class="cls-11" d="M332,435a9.84,9.84,0,0,1,4.88,8.48v76.9L222.41,454.06v-76.9a3.25,3.25,0,0,1,4.88-2.81Z"/><path class="cls-12" d="M326.05,517.3a2.45,2.45,0,0,1,.16,3.67l-36,23.07c-3.05,1.87-5.65.17-8.47-1.43l-97.1-56c-2.17-1.26-1.52-3.2,0-4.08l35.5-22.45c2-1.15,4.25-1.62,5.68-.81Z"/><path class="cls-13" d="M240.48,524c3.2,1.85,3.2,4.83,0,6.67L226.2,539a12.64,12.64,0,0,1-11.5,0l-22.52-13c-3.19-1.83-3.21-4.84,0-6.68l14.32-8.34a12.77,12.77,0,0,1,11.52,0l22.51,13Z"/><path class="cls-14" d="M229.78,447.11,328.1,504V443.76L229.78,386.9Z"/><path class="cls-15" d="M216.49,188.63,113.85,129.8v2.33a4.49,4.49,0,0,0,2.22,3.88l95.08,54.88a10.4,10.4,0,0,0,10.47,0l67.2-39.13a6,6,0,0,0,3-5.2v-3l-75.36,45.17Z"/><path class="cls-16" d="M291.85,143.48l-71,45.48a8.6,8.6,0,0,1-8.89.17l-96.51-55.61a3.11,3.11,0,0,1-.1-5.34l71-45.5Z"/><path class="cls-17" d="M191.72,10.07a4.46,4.46,0,0,0-4.47,0l-1.17.71,101.22,60,2.1,74.42,2.43-1.41V73.18a9,9,0,0,0-4.5-7.79Z"/><path class="cls-11" d="M284.91,66.79a9,9,0,0,1,4.49,7.8v70.68l-105.21-61V13.62A3,3,0,0,1,188.68,11Z"/><path class="cls-18" d="M279.45,142.42a2.24,2.24,0,0,1,.14,3.37L246.47,167c-2.8,1.72-5.19.16-7.78-1.31l-89.24-51.49c-2-1.17-1.4-3,0-3.76L182.07,89.8c1.81-1,3.91-1.49,5.22-.74Z"/><path class="cls-19" d="M200.8,148.53c2.95,1.7,2.95,4.43,0,6.13l-13.16,7.66a11.63,11.63,0,0,1-10.56,0l-20.7-12c-2.93-1.69-2.95-4.45,0-6.14l13.16-7.66a11.67,11.67,0,0,1,10.58,0l20.7,12Z"/><path class="cls-20" d="M191,77.92l90.36,52.27V74.84L191,22.57Z"/><path class="cls-21" d="M617.09,392.62l-34.24-20.1c1.9,1.07,3,3.48,3,6.52a6.84,6.84,0,0,1-3.2,5.43l-18.73,10.76a3.81,3.81,0,0,0-1.73,3,1.21,1.21,0,0,0,.5,1.11l34.2,20.09a1.25,1.25,0,0,1-.5-1.11,3.8,3.8,0,0,1,1.73-3l18.75-10.77a6.78,6.78,0,0,0,3.16-5.43c0-3.08-1-5.46-2.93-6.53Z"/><path class="cls-22" d="M595.34,374.48l-34.25-20.12-2.42,4.25,34.19,20.07Z"/><path class="cls-22" d="M619.51,388.4,585.3,368.3l-24.21-13.94,34.25,20.12Z"/><path class="cls-23" d="M595.34,374.48l-2.48,4.22,24.23,13.94c1.87,1.07,2.94,3.45,2.92,6.52a6.79,6.79,0,0,1-3.15,5.43l-18.75,10.78a3.8,3.8,0,0,0-1.73,3c0,1.09.78,1.56,1.73,1l18.75-10.78a14.65,14.65,0,0,0,6.65-11.42c0-4.09-1.44-7.29-4-8.74L595.36,374.5Z"/><path class="cls-22" d="M522.27,206.93l-3.44,2c1.21-.71,2.84-.58,4.66.45l3.41-2c-1.79-1.06-3.41-1.15-4.61-.49Z"/><path class="cls-11" d="M680.06,410.6,516.28,315l0,11.78a14.15,14.15,0,0,0,6.4,11.2l58.12,33.9,35.13,20.5,57.67,33.65c3.57,2.09,6.51.42,6.51-3.7Z"/><path class="cls-22" d="M673.16,397.14l3.42-2,.64-93.09-3.42,2Z"/><path class="cls-22" d="M673.8,304l3.42-2L528.05,215l-3.42,2Z"/><path class="cls-24" d="M677.74,295.43l-150.84-88c-1.79-1.06-3.41-1.15-4.61-.49l-3.44,2c1.21-.71,2.84-.58,4.66.45l150.82,88c3.39,2,6.46,7.08,6.43,11.24l-.59,92.62-.08,9.33h0l0,11.78c0,2-.73,3.48-1.89,4.16l3.45-2c1.16-.66,1.91-2.09,1.91-4.13l0-11.83,0-9.29.6-92.58a14.58,14.58,0,0,0-6.44-11.26Z"/><path class="cls-11" d="M674.32,297.41a14.34,14.34,0,0,1,6.42,11.24l-.59,92.62v1.63l-.06,7.7L516.28,315c0-1.45-.09,9.65.66-101.93,0-4.13,3-5.77,6.53-3.7l150.83,88Z"/><path class="cls-25" d="M524,310.06l149.17,87.08.64-93.1L524.63,217Z"/><path class="cls-22" d="M616.8,456.92,500.3,393.28a2.8,2.8,0,0,1-1.16-2.54,7.3,7.3,0,0,1,.32-2.05L616,452.36a6.72,6.72,0,0,0-.36,2.06A2.75,2.75,0,0,0,616.8,456.92Z"/><path class="cls-26" d="M505.92,383.65c-1.18-.64-2.54,0-3.57.79L448,418.5l115.86,65,55.07-35.4.16-.16c1.53-1.06,2.66-1,3.32-.59Z"/><path class="cls-27" d="M447.53,418.94a1.77,1.77,0,0,1,.41-.41l115.84,65.05a1.61,1.61,0,0,0-.39.39,2.06,2.06,0,0,0-.46,1.31.78.78,0,0,0,.27.48l-115.85-65a.55.55,0,0,1-.27-.5,2.33,2.33,0,0,1,.43-1.3Z"/><path class="cls-28" d="M619.62,447.64c2.14-1.27,3.91-.25,3.91,2.25a8.56,8.56,0,0,1-3.94,6.76c-2.16,1.3-3.93.27-3.93-2.23a6.72,6.72,0,0,1,.36-2.06l-.88.57L564,485.69c-.59.37-1,.18-1.09-.39a2.3,2.3,0,0,1,.89-1.77L619.05,448l.18-.08.21-.09.16-.13Z"/><path class="cls-22" d="M598.68,480.81a31.1,31.1,0,0,1,15.57-4.38l14.63,8.6a31.5,31.5,0,0,0-15.52,4.37,60.64,60.64,0,0,0-12.7,10.37,5.31,5.31,0,0,1-6.44,1l-6.55-3.84c-1.85-1.1-2.8-4.23-1.3-5.79C589.87,487.46,594,483.53,598.68,480.81Z"/><path class="cls-29" d="M613.36,489.4c-6.14,3.51-11.79,9.15-15.54,13.46l.34.11c.79.3,2.46-.5,4-1.41.78-.41,1.55-.9,2.07-1.18l18.34-10.51c.53-.32,1.3-.72,2.07-1.14a12.76,12.76,0,0,0,4-3.2l.28-.47a31.39,31.39,0,0,0-15.51,4.38Z"/><path class="cls-30" d="M628.76,483a1.52,1.52,0,0,1-.11,2.76c-.57.25-3.12.75-4,1a40.58,40.58,0,0,0-9.3,4,58.55,58.55,0,0,0-13.09,10.67,5.64,5.64,0,0,1-3.57,1.86c-2.53.25-3.87,0-6.42-1.67l-4.66-2.93a5.13,5.13,0,0,1-1.21-7.81c-.29-.28,3.6,8,4.17,8.37,3.14,1.87,4.41,2.78,6.53,2.78a6.67,6.67,0,0,0,4.77-1.84,59,59,0,0,1,13.46-10.92,35.94,35.94,0,0,1,11.31-4.28c.88-.17,2.15-.29,2.32-.84a1.47,1.47,0,0,0-.19-1.08Z"/><path class="cls-11" d="M587.12,489.94a57.14,57.14,0,0,1,12.58-10,33.14,33.14,0,0,1,13-4.46,9.27,9.27,0,0,1,5.92,1.53l10.14,5.94a.92.92,0,0,1-.42,1.71,17.61,17.61,0,0,0-2.15.29,34.38,34.38,0,0,0-10.87,4.2,56.69,56.69,0,0,0-11.61,9c-.36.37-.84.86-1.36,1.44a6.94,6.94,0,0,1-8.67,1.43l-.5-.3-5.38-3.16a4.62,4.62,0,0,1-1.09-7.13C586.87,490.21,587,490.07,587.12,489.94Z"/><path class="cls-31" d="M137.2,291.21l-27.14-15.94c1.49.85,2.37,2.76,2.34,5.17a5.44,5.44,0,0,1-2.53,4.31L95,293.28a3,3,0,0,0-1.38,2.38,1,1,0,0,0,.4.88l27.12,15.93a1,1,0,0,1-.4-.88,3,3,0,0,1,1.38-2.37L137,300.68a5.38,5.38,0,0,0,2.5-4.31c0-2.44-.82-4.32-2.32-5.17Z"/><path class="cls-22" d="M120,276.83l-27.17-16-1.92,3.37L118,280.16Z"/><path class="cls-22" d="M139.13,287.86,112,271.92l-19.2-11.05,27.17,16Z"/><path class="cls-32" d="M120,276.83l-2,3.34,19.21,11.05c1.49.86,2.34,2.74,2.32,5.18a5.41,5.41,0,0,1-2.5,4.31l-14.87,8.54a3,3,0,0,0-1.37,2.37c0,.86.62,1.23,1.37.79L137,303.87a11.63,11.63,0,0,0,5.28-9.06c0-3.24-1.15-5.78-3.16-6.93l-19.17-11Z"/><path class="cls-22" d="M62,143.94l-2.73,1.59a3.63,3.63,0,0,1,3.69.35l2.7-1.55a3.65,3.65,0,0,0-3.65-.39Z"/><path class="cls-11" d="M187.15,305.47l-129.9-75.8,0,9.34a11.27,11.27,0,0,0,5.08,8.89l46.1,26.88L136.24,291,182,317.73c2.83,1.66,5.17.34,5.17-2.94Z"/><path class="cls-22" d="M181.67,294.8l2.72-1.58.51-73.82L182.18,221Z"/><path class="cls-22" d="M182.18,221l2.72-1.56L66.59,150.35l-2.71,1.57Z"/><path class="cls-33" d="M185.31,214.13,65.67,144.33a3.65,3.65,0,0,0-3.65-.39l-2.73,1.59a3.63,3.63,0,0,1,3.69.35l119.62,69.8a11.56,11.56,0,0,1,5.1,8.92l-.47,73.46,0,7.39h0l0,9.34a3.65,3.65,0,0,1-1.5,3.31l2.72-1.61a3.54,3.54,0,0,0,1.52-3.27l0-9.38,0-7.37.48-73.43a11.56,11.56,0,0,0-5.11-8.93Z"/><path class="cls-11" d="M182.59,215.7a11.33,11.33,0,0,1,5.09,8.91l-.46,73.46v1.29l-.05,6.11L57.25,229.66c0-1.15-.07,7.65.53-80.84,0-3.28,2.36-4.58,5.18-2.94l119.62,69.8Z"/><path class="cls-34" d="M63.37,225.73l118.3,69.07.51-73.84-118.3-69Z"/><path class="cls-22" d="M137,342.2l-92.4-50.47a2.21,2.21,0,0,1-.92-2,6.2,6.2,0,0,1,.25-1.63l92.45,50.5a5.1,5.1,0,0,0-.29,1.63A2.16,2.16,0,0,0,137,342.2Z"/><path class="cls-35" d="M49,284.1a2.65,2.65,0,0,0-2.82.62l-43.13,27L95,363.28l43.68-28.08.12-.13c1.22-.83,2.11-.77,2.64-.46Z"/><path class="cls-36" d="M2.73,312.09a1.42,1.42,0,0,1,.32-.33l91.88,51.59a1.14,1.14,0,0,0-.31.31,1.64,1.64,0,0,0-.37,1,.68.68,0,0,0,.21.38L2.59,313.5a.41.41,0,0,1-.21-.39,1.81,1.81,0,0,1,.33-1Z"/><path class="cls-37" d="M139.21,334.85c1.7-1,3.1-.2,3.1,1.78a6.76,6.76,0,0,1-3.13,5.36c-1.71,1-3.11.21-3.11-1.77a5.37,5.37,0,0,1,.28-1.63l-.69.45L95.1,365c-.47.3-.81.14-.86-.31a1.8,1.8,0,0,1,.7-1.4l43.82-28.21.14-.07.17-.07.13-.1Z"/><path class="cls-22" d="M122.6,361.15A24.68,24.68,0,0,1,135,357.68l11.6,6.82A24.87,24.87,0,0,0,134.25,368a48,48,0,0,0-10.08,8.22,4.19,4.19,0,0,1-5.1.76l-5.19-3c-1.48-.88-2.23-3.36-1-4.59A45.83,45.83,0,0,1,122.6,361.15Z"/><path class="cls-38" d="M134.25,368c-4.87,2.78-9.35,7.26-12.32,10.67l.26.09c.63.24,2-.4,3.16-1.12.62-.33,1.23-.71,1.64-.94l14.54-8.33c.43-.26,1-.57,1.65-.91a10.07,10.07,0,0,0,3.18-2.54l.22-.37a24.9,24.9,0,0,0-12.3,3.48Z"/><path class="cls-39" d="M146.46,362.85a1.21,1.21,0,0,1-.09,2.19c-.45.19-2.47.59-3.19.76A32.29,32.29,0,0,0,135.8,369a46.26,46.26,0,0,0-10.38,8.46,4.43,4.43,0,0,1-2.83,1.47,6.53,6.53,0,0,1-5.09-1.32l-3.7-2.32a4.06,4.06,0,0,1-1-6.19c-.23-.23,2.86,6.36,3.31,6.63,2.49,1.49,3.5,2.21,5.18,2.21a5.28,5.28,0,0,0,3.78-1.46,46.76,46.76,0,0,1,10.68-8.66,28.56,28.56,0,0,1,9-3.4c.69-.13,1.7-.23,1.84-.67a1.12,1.12,0,0,0-.16-.85Z"/><path class="cls-11" d="M113.44,368.39a45.09,45.09,0,0,1,10-7.93,26.39,26.39,0,0,1,10.31-3.55,7.45,7.45,0,0,1,4.7,1.22l8,4.71a.74.74,0,0,1-.33,1.36,14.6,14.6,0,0,0-1.71.23,27.25,27.25,0,0,0-8.62,3.33,44.78,44.78,0,0,0-9.21,7.11c-.28.3-.66.68-1.07,1.15a5.51,5.51,0,0,1-6.88,1.13l-.39-.24L114,374.4a3.66,3.66,0,0,1-.86-5.65Z"/><path class="cls-40" d="M277.92,189.84l37.76-22c-7.4-2.49-14-2.06-19.16.93l-37.76,22c5.14-3,11.75-3.44,19.16-.93Z"/><path class="cls-41" d="M327.1,150.12c7.68-4.47,18.32-3.85,30.06,3,19,11,35,34.72,40.29,57.67l-37.77,22c-5.26-22.95-21.28-46.69-40.29-57.67-11.75-6.8-22.38-7.43-30.07-3l37.76-22Z"/><path class="cls-42" d="M387,276.31l37.76-22C423,237.67,411.46,219,397.45,210.75l-37.77,22c14,8.25,25.49,26.91,27.33,43.58Z"/><path class="cls-43" d="M404.8,340.24l37.76-22c4.91-2.86,7.95-8.94,8-17.59,0-16.81-11.36-37.1-25.75-46.34l-37.76,22c14.39,9.24,25.79,29.53,25.75,46.34,0,8.63-3.07,14.73-8,17.58Z"/><path class="cls-44" d="M319.4,175.06C299,163.27,282,170,277.92,189.84c-17.19-5.8-30.12,4.25-30.19,25.26-.07,24.06,16.81,53.37,37.72,65.46l99.87,57.77c15.11,8.74,27.39,1.73,27.44-15.68.05-16.81-11.34-37.1-25.75-46.34-1.84-16.65-13.32-35.33-27.33-43.58-5.26-22.95-21.28-46.69-40.29-57.67Z"/><path class="cls-45" d="M235.66,234.27l24.62-14.33c-4.83-1.63-9.14-1.34-12.48.61l-24.62,14.33C226.54,232.93,230.84,232.64,235.66,234.27Z"/><path class="cls-46" d="M267.72,208.38c5-2.92,11.94-2.51,19.61,1.93,12.39,7.17,22.83,22.63,26.27,37.6L289,262.23c-3.43-15-13.87-30.42-26.27-37.6-7.65-4.43-14.59-4.84-19.59-1.92l24.61-14.34Z"/><path class="cls-47" d="M306.78,290.64l24.62-14.33c-1.19-10.86-8.69-23-17.83-28.42L289,262.22c9.14,5.37,16.62,17.55,17.82,28.4Z"/><path class="cls-48" d="M318.37,332.32,343,318c3.19-1.87,5.19-5.82,5.2-11.47,0-10.95-7.4-24.19-16.78-30.21L306.8,290.64c9.38,6,16.8,19.26,16.78,30.21C323.56,326.48,321.57,330.45,318.37,332.32Z"/><path class="cls-49" d="M262.7,224.63c-13.29-7.68-24.41-3.27-27,9.64C224.44,230.5,216,237.05,216,250.74c-.05,15.69,11,34.8,24.59,42.68,10.45,6,56.26,32.53,65.1,37.65,9.85,5.7,17.86,1.12,17.9-10.22,0-11-7.4-24.19-16.78-30.21-1.19-10.86-8.68-23-17.82-28.41-3.44-15-13.88-30.42-26.28-37.6Z"/><path class="cls-50" d="M545,142.19c0-1.39-.92-2.76-2.74-3.82l-59.56-34.46a14.53,14.53,0,0,0-13.19,0L416.4,134.85c-1.81,1.06-2.72,2.44-2.7,3.83v18.75c0,1.39.92,2.79,2.74,3.85L476,195.74a14.53,14.53,0,0,0,13.19,0l53.14-30.94c1.78-1,2.67-2.38,2.7-3.74s0-17.48,0-18.85Z"/><path class="cls-51" d="M540.69,135.4a.63.63,0,0,0-.3-.56l-59.56-34.46a9.82,9.82,0,0,0-4.71-1.07,9.71,9.71,0,0,0-4.69,1.07L418.3,131.32a.57.57,0,0,0-.26.54v6.8a.63.63,0,0,0,.3.56l59.56,34.45a9.82,9.82,0,0,0,4.71,1.08,9.42,9.42,0,0,0,4.68-1.08l53.14-30.94a.56.56,0,0,0,.26-.54Z"/><path class="cls-52" d="M545,113.21c0-1.39-.92-2.76-2.74-3.83L482.73,74.93a14.53,14.53,0,0,0-13.19,0L416.4,105.87c-1.81,1-2.72,2.44-2.7,3.83v18.75c0,1.39.92,2.79,2.74,3.85L476,166.75a14.47,14.47,0,0,0,13.19,0l53.14-30.93c1.78-1,2.67-2.39,2.7-3.75s0-17.47,0-18.85Z"/><path class="cls-53" d="M540.69,106.42a.62.62,0,0,0-.3-.56L480.83,71.4a9.82,9.82,0,0,0-4.71-1.08,9.59,9.59,0,0,0-4.69,1.08L418.3,102.34a.57.57,0,0,0-.26.54v6.8a.63.63,0,0,0,.3.55l59.56,34.46a9.82,9.82,0,0,0,4.71,1.07,9.53,9.53,0,0,0,4.68-1.07l53.14-30.94a.57.57,0,0,0,.26-.54v-6.8Z"/><path class="cls-54" d="M545,84.23c0-1.39-.92-2.77-2.74-3.83L482.73,46a14.53,14.53,0,0,0-13.19,0L416.4,76.89c-1.81,1.06-2.72,2.43-2.7,3.82V99.46c0,1.39.92,2.79,2.74,3.86L476,137.77a14.53,14.53,0,0,0,13.19,0l53.14-30.94c1.78-1,2.67-2.38,2.7-3.74s0-17.47,0-18.85Z"/><path class="cls-55" d="M540.69,77.44a.65.65,0,0,0-.3-.57L480.83,42.42a9.82,9.82,0,0,0-4.71-1.08,9.48,9.48,0,0,0-4.69,1.08L418.3,73.36a.56.56,0,0,0-.26.54v6.8a.61.61,0,0,0,.3.55l59.56,34.46a9.82,9.82,0,0,0,4.71,1.07,9.64,9.64,0,0,0,4.68-1.07l53.14-30.94a.57.57,0,0,0,.26-.54Z"/><path class="cls-56" d="M545,55.23c0-1.39-.92-2.76-2.74-3.83L482.73,17a14.53,14.53,0,0,0-13.19,0L416.4,47.89c-1.81,1.06-2.72,2.44-2.7,3.83V70.47c0,1.38.92,2.79,2.74,3.85L476,108.77a14.47,14.47,0,0,0,13.19,0l53.14-30.93c1.78-1,2.67-2.39,2.7-3.75s0-17.47,0-18.85Z"/><path class="cls-57" d="M418.32,51.38l59.57,34.45a9.79,9.79,0,0,0,4.71,1.08,9.53,9.53,0,0,0,4.68-1.08l53.14-30.94a.69.69,0,0,0,0-1.09L480.83,19.35a9.82,9.82,0,0,0-4.71-1.08,9.48,9.48,0,0,0-4.69,1.08L418.3,50.28a.68.68,0,0,0,0,1.1Z"/><path class="cls-58" d="M419.43,147.23a2,2,0,0,1-.88-1.52A2,2,0,0,0,419.43,147.23Z"/><path class="cls-59" d="M435.34,161.3a1.9,1.9,0,0,1,.88,1.53c0,.55-.4.78-.88.51l-14.92-8.68a2,2,0,0,1-.88-1.51c0-.57.4-.78.89-.51l14.93,8.66Z"/><path class="cls-60" d="M421.17,116.37a.68.68,0,0,1,.31.55v3c0,.2-.14.28-.33.18l-3-1.74a.71.71,0,0,1-.32-.55v-3a.2.2,0,0,1,.32-.18l3,1.74Z"/><path class="cls-61" d="M421.17,121.94a.68.68,0,0,1,.31.55v3c0,.2-.14.28-.33.18l-3-1.74a.71.71,0,0,1-.32-.55v-3a.19.19,0,0,1,.32-.18l3,1.74Z"/><path class="cls-62" d="M426.49,119.56a.71.71,0,0,1,.31.55v3c0,.2-.14.28-.33.18l-3-1.74a.7.7,0,0,1-.33-.56v-3c0-.2.15-.28.33-.18l3,1.74Z"/><path class="cls-63" d="M426.49,125.13a.71.71,0,0,1,.31.55v3c0,.19-.14.28-.33.18l-3-1.74a.7.7,0,0,1-.33-.56v-3c0-.21.15-.28.33-.18l3,1.74Z"/><path class="cls-64" d="M431.81,122.73a.71.71,0,0,1,.31.57v3c0,.21-.14.28-.33.18l-3-1.74a.7.7,0,0,1-.33-.56v-3a.21.21,0,0,1,.33-.19l3,1.75Z"/><path class="cls-65" d="M431.81,128.3a.7.7,0,0,1,.31.56v3c0,.21-.14.29-.33.19l-3-1.75a.68.68,0,0,1-.33-.56v-3c0-.21.16-.28.33-.18l3,1.74Z"/><path class="cls-66" d="M437.13,125.92a.71.71,0,0,1,.31.57v3c0,.22-.14.29-.33.19l-3-1.74a.71.71,0,0,1-.32-.56v-3c0-.21.15-.28.32-.19l3,1.75Z"/><path class="cls-67" d="M437.13,131.49a.7.7,0,0,1,.31.56v3c0,.21-.14.28-.33.19l-3-1.75a.69.69,0,0,1-.32-.55v-3c0-.21.15-.28.32-.18l3,1.74Z"/><path class="cls-68" d="M442.52,129.28a.73.73,0,0,1,.31.56v3c0,.2-.14.28-.33.18l-3-1.74a.69.69,0,0,1-.32-.55v-3c0-.21.15-.28.34-.18Z"/><path class="cls-69" d="M442.52,134.85a.73.73,0,0,1,.31.55v3c0,.2-.14.28-.33.18l-3-1.74a.7.7,0,0,1-.32-.57v-3c0-.2.15-.29.34-.18l3,1.74Z"/><path class="cls-70" d="M447.84,132.47a.71.71,0,0,1,.31.55v3c0,.21-.14.28-.33.18l-3-1.74a.69.69,0,0,1-.32-.55v-3c0-.21.15-.28.34-.18Z"/><path class="cls-71" d="M447.84,138a.73.73,0,0,1,.31.55v3c0,.2-.14.28-.33.18l-3-1.74a.72.72,0,0,1-.32-.57v-3c0-.2.15-.29.34-.19l3,1.75Z"/><path class="cls-72" d="M421.17,61.28a.7.7,0,0,1,.31.55v3c0,.2-.14.28-.33.18l-3-1.74a.69.69,0,0,1-.32-.55v-3a.2.2,0,0,1,.32-.18l3,1.74Z"/><path class="cls-73" d="M421.17,66.85a.7.7,0,0,1,.31.55v3c0,.2-.14.28-.33.18l-3-1.74a.69.69,0,0,1-.32-.55v-3a.19.19,0,0,1,.32-.18l3,1.74Z"/><path class="cls-74" d="M426.49,64.47a.73.73,0,0,1,.31.55v3c0,.2-.14.28-.33.18l-3-1.74a.71.71,0,0,1-.33-.57v-3c0-.21.15-.29.33-.19l3,1.75Z"/><path class="cls-75" d="M426.49,70a.71.71,0,0,1,.31.55v3c0,.2-.14.29-.33.19l-3-1.75a.67.67,0,0,1-.33-.55v-3c0-.22.15-.29.33-.19l3,1.75Z"/><path class="cls-76" d="M431.81,67.65a.67.67,0,0,1,.31.55v3c0,.22-.14.29-.33.19l-3-1.75a.68.68,0,0,1-.33-.56v-3c0-.21.16-.28.33-.18l3,1.74Z"/><path class="cls-77" d="M431.81,73.22a.67.67,0,0,1,.31.55v3c0,.22-.14.29-.33.19l-3-1.75a.68.68,0,0,1-.33-.55v-3a.2.2,0,0,1,.33-.19l3,1.76Z"/><path class="cls-78" d="M437.13,70.83a.7.7,0,0,1,.31.56v3c0,.2-.14.29-.33.19l-3-1.75a.69.69,0,0,1-.32-.55v-3c0-.22.15-.29.32-.19l3,1.74Z"/><path class="cls-79" d="M437.13,76.39a.68.68,0,0,1,.31.55v3c0,.2-.14.28-.33.18l-3-1.74a.71.71,0,0,1-.32-.55v-3c0-.21.15-.28.32-.18l3,1.74Z"/><path class="cls-80" d="M442.52,74.19a.73.73,0,0,1,.31.56v3c0,.21-.14.28-.33.18l-3-1.74a.69.69,0,0,1-.32-.55v-3c0-.21.15-.28.34-.18Z"/><path class="cls-81" d="M442.52,79.76a.73.73,0,0,1,.31.56v3c0,.21-.14.28-.33.18l-3-1.74a.7.7,0,0,1-.32-.57v-3c0-.21.15-.28.34-.18l3,1.74Z"/><path class="cls-82" d="M447.84,77.38a.73.73,0,0,1,.31.55v3c0,.21-.14.28-.33.18l-3-1.74a.69.69,0,0,1-.32-.55v-3c0-.21.15-.28.34-.18Z"/><path class="cls-83" d="M447.84,83a.73.73,0,0,1,.31.55v3c0,.21-.14.28-.33.18l-3-1.74a.69.69,0,0,1-.32-.55v-3c0-.2.15-.28.34-.18Z"/><path class="cls-84" d="M467.77,85.72a2.26,2.26,0,0,1,1,1.8V100c0,.66-.47.92-1.05.59a2.24,2.24,0,0,1-1-1.8V86.31c0-.67.48-.92,1.05-.59Z"/><path class="cls-85" d="M463.88,83.43a2.26,2.26,0,0,1,1,1.8V97.68c0,.66-.47.92-1,.59a2.24,2.24,0,0,1-1-1.8V84c0-.67.48-.92,1-.6Z"/><path class="cls-86" d="M460,81.15a2.26,2.26,0,0,1,1,1.8V95.4c0,.65-.47.92-1.05.59a2.26,2.26,0,0,1-1-1.8V81.75c0-.67.48-.92,1.05-.6Z"/><path class="cls-87" d="M456.1,78.87a2.25,2.25,0,0,1,1,1.8V93.11c0,.67-.47.92-1.05.6a2.28,2.28,0,0,1-1-1.8V79.47c0-.67.48-.93,1-.6Z"/><path class="cls-88" d="M467.77,143.2a2.27,2.27,0,0,1,1,1.8v12.44c0,.67-.47.92-1.05.6a2.27,2.27,0,0,1-1-1.8V143.79c0-.66.48-.92,1.05-.59Z"/><path class="cls-89" d="M463.88,140.92a2.23,2.23,0,0,1,1,1.8v12.44c0,.67-.47.92-1,.6a2.27,2.27,0,0,1-1-1.8V141.51c0-.66.48-.92,1-.59Z"/><path class="cls-90" d="M460,138.64a2.23,2.23,0,0,1,1,1.8v12.44c0,.65-.47.92-1.05.6a2.27,2.27,0,0,1-1-1.8V139.23c0-.66.48-.92,1.05-.59Z"/><path class="cls-91" d="M456.1,136.35a2.26,2.26,0,0,1,1,1.8V150.6c0,.66-.47.92-1.05.59a2.27,2.27,0,0,1-1-1.8V137a.64.64,0,0,1,1-.6Z"/><path class="cls-92" d="M467.77,172.74a2.26,2.26,0,0,1,1,1.8V187c0,.67-.47.92-1.05.59a2.24,2.24,0,0,1-1-1.8V173.33c0-.67.48-.92,1.05-.59Z"/><path class="cls-93" d="M463.88,170.45a2.26,2.26,0,0,1,1,1.8V184.7c0,.65-.47.92-1,.59a2.24,2.24,0,0,1-1-1.8V171.05a.64.64,0,0,1,1-.6Z"/><path class="cls-94" d="M460,168.17a2.25,2.25,0,0,1,1,1.8v12.44c0,.67-.47.93-1.05.6a2.26,2.26,0,0,1-1-1.8V168.77c0-.67.48-.92,1.05-.6Z"/><path class="cls-95" d="M456.1,165.89a2.25,2.25,0,0,1,1,1.8v12.44c0,.67-.47.92-1.05.6a2.28,2.28,0,0,1-1-1.8V166.49c0-.67.48-.93,1-.6Z"/><path class="cls-96" d="M527.39,68.71a2.23,2.23,0,0,0-1,1.8V83c0,.67.47.92,1,.6a2.27,2.27,0,0,0,1-1.8V69.3c0-.66-.48-.92-1.05-.59Z"/><path class="cls-97" d="M531.28,66.43a2.23,2.23,0,0,0-1,1.8V80.67c0,.67.47.92,1,.6a2.33,2.33,0,0,0,1-1.8V67c0-.66-.48-.92-1.05-.59Z"/><path class="cls-98" d="M535.17,64.14a2.29,2.29,0,0,0-1,1.8V78.39c0,.66.47.92,1.05.59a2.24,2.24,0,0,0,1-1.8V64.74c0-.67-.48-.94-1.05-.6Z"/><path class="cls-99" d="M539.06,61.86a2.24,2.24,0,0,0-1,1.8V76.11c0,.66.47.92,1,.59a2.24,2.24,0,0,0,1-1.8V62.46C540.11,61.79,539.63,61.54,539.06,61.86Z"/><path class="cls-100" d="M418.51,90.05a1.67,1.67,0,0,1-.75-1.3A1.67,1.67,0,0,0,418.51,90.05Z"/><path class="cls-101" d="M422.23,90.46a1.69,1.69,0,0,1,.75,1.31c0,.48-.34.68-.75.44l-3.72-2.16a1.67,1.67,0,0,1-.75-1.3c0-.48.34-.67.76-.43l3.72,2.16Z"/><path class="cls-102" d="M418.51,93.84a1.69,1.69,0,0,1-.75-1.31A1.69,1.69,0,0,0,418.51,93.84Z"/><path class="cls-103" d="M419.45,92.67A1.68,1.68,0,0,1,420.2,94c0,.48-.33.66-.75.42l-.94-.58a1.67,1.67,0,0,1-.75-1.3c0-.48.34-.67.76-.43l1,.58Z"/><path class="cls-104" d="M423.93,98.94a1.67,1.67,0,0,1,.75,1.3c0,.48-.34.67-.77.43l-5.42-3.15a1.67,1.67,0,0,1-.75-1.3c0-.48.34-.67.77-.43Z"/><path class="cls-105" d="M428.31,97.8a1.7,1.7,0,0,1,.75,1.31c0,.48-.34.66-.75.42L422.11,96a1.67,1.67,0,0,1-.75-1.3c0-.48.34-.67.75-.43Z"/><path class="cls-106" d="M427.46,101a1.67,1.67,0,0,1,.75,1.3c0,.48-.34.67-.76.42l-.72-.42A1.62,1.62,0,0,1,426,101c0-.49.34-.67.75-.44l.72.42Z"/><path class="cls-107" d="M426.13,92.75a1.67,1.67,0,0,1,.75,1.3c0,.48-.34.67-.76.42l-1.05-.61a1.67,1.67,0,0,1-.75-1.3c0-.48.34-.67.75-.44l1.05.61Z"/><path class="cls-108" d="M431.26,95.72A1.67,1.67,0,0,1,432,97c0,.48-.34.66-.75.43L429,96.16a1.67,1.67,0,0,1-.75-1.3c0-.48.34-.67.76-.43l2.24,1.31Z"/><path class="cls-109" d="M434.55,99.48a1.65,1.65,0,0,1-.75-1.31A1.67,1.67,0,0,0,434.55,99.48Z"/><path class="cls-110" d="M438.29,99.89a1.67,1.67,0,0,1,.75,1.3c0,.48-.34.67-.77.43l-3.72-2.16a1.64,1.64,0,0,1-.75-1.3c0-.48.34-.67.75-.44l3.72,2.15Z"/><path class="cls-111" d="M434.55,103.25a1.65,1.65,0,0,1-.75-1.31A1.67,1.67,0,0,0,434.55,103.25Z"/><path class="cls-112" d="M435.5,102.08a1.7,1.7,0,0,1,.75,1.31c0,.48-.34.67-.77.42l-4.14-2.41a1.67,1.67,0,0,1-.75-1.3c0-.48.34-.67.75-.42l4.14,2.39Z"/><path class="cls-113" d="M440,108.36l-5.43-3.14-4.1-2.47c-.41-.24-.75,0-.75.43a1.67,1.67,0,0,0,.75,1.3l4.1,2.47,5.42,3.14c.41.24.75,0,.75-.42a1.67,1.67,0,0,0-.75-1.31Z"/><path class="cls-114" d="M447.31,108.92a1.67,1.67,0,0,1,.75,1.3c0,.48-.34.67-.76.42l-9.14-5.27a1.67,1.67,0,0,1-.75-1.3c0-.48.34-.67.75-.43l9.14,5.28Z"/><path class="cls-115" d="M447.31,112.61a1.7,1.7,0,0,1,.75,1.31c0,.48-.34.66-.76.42l-.81-.45a1.67,1.67,0,0,1-.75-1.3c0-.48.34-.67.75-.43l.81.45Z"/><path class="cls-116" d="M443.52,110.46a1.67,1.67,0,0,1,.75,1.3c0,.49-.34.67-.75.43l-.72-.43a1.67,1.67,0,0,1-.75-1.3c0-.48.34-.67.75-.42Z"/><path class="cls-117" d="M442.19,102.16a1.67,1.67,0,0,1,.75,1.3c0,.48-.34.67-.75.43l-1.05-.61a1.69,1.69,0,0,1-.75-1.31c0-.48.34-.66.75-.42Z"/><path class="cls-118" d="M447.31,105.15a1.67,1.67,0,0,1,.75,1.3c0,.48-.34.67-.76.43l-2.24-1.31a1.67,1.67,0,0,1-.75-1.3c0-.48.34-.68.75-.44l2.24,1.3Z"/><path class="cls-119" d="M447.82,173.13a.67.67,0,0,1-.3-.08L418,155.57a1,1,0,0,1-.5-.85v-5.5a.51.51,0,0,1,.78-.44l29.5,17.48a1,1,0,0,1,.48.85v5.5A.49.49,0,0,1,447.82,173.13Zm-29.75-23.86v5.45a.48.48,0,0,0,.23.38l29.45,17.45v-5.44a.47.47,0,0,0-.21-.38Z"/><path class="cls-120" d="M442.76,166a.37.37,0,0,1,.15.28v1.52c0,.1-.07.14-.15.1l-4.5-2.71a.33.33,0,0,1-.17-.28v-1.52c0-.1.07-.14.17-.1Z"/></g></svg>