<svg id="Layer_3" data-name="Layer 3" xmlns="http://www.w3.org/2000/svg" xmlns:xlink="http://www.w3.org/1999/xlink" viewBox="0 0 101.18 100"><defs><style>.cls-1{stroke-width:0.5px;fill:url(#radial-gradient);stroke:url(#linear-gradient);}</style><radialGradient id="radial-gradient" cx="6999.91" cy="7445.79" r="1" gradientTransform="matrix(57.06, -52.39, -61.17, -66.63, 63239.84, 870050.93)" gradientUnits="userSpaceOnUse"><stop offset="0" stop-color="#2793db"/><stop offset="1" stop-color="#003050"/></radialGradient><linearGradient id="linear-gradient" x1="7306" y1="7104.5" x2="7306" y2="7005.5" gradientTransform="matrix(1, 0, 0, -1, -106, 14255)" gradientUnits="userSpaceOnUse"><stop offset="0" stop-color="#0071bc"/><stop offset="1" stop-color="#003558"/></linearGradient></defs><path class="cls-1" d="M7156.29,7206.25a43.45,43.45,0,0,0,.72,7.89l-.22.16a14.71,14.71,0,0,0-6.65,8.89h0a14.7,14.7,0,0,0,10.22,17.87h0a14.79,14.79,0,0,0,3.8.55h0a14.63,14.63,0,0,0,7.31-2.11h0l.2-.13a43.59,43.59,0,0,0,56.47,0l.2.13h0a14.75,14.75,0,0,0,7.31,2h0a14.89,14.89,0,0,0,3.82-.5h0a14.71,14.71,0,0,0,10.38-17.88h0a14.69,14.69,0,0,0-6.84-8.8l-.25-.18a42.48,42.48,0,0,0,.76-7.87h0a43.64,43.64,0,0,0-28.9-41.08,1.62,1.62,0,0,0,0-.22,14.71,14.71,0,0,0-22.06-12.73l.13.22-.13-.22a14.71,14.71,0,0,0-7.35,12.72c0,.08,0,.16,0,.23a43.63,43.63,0,0,0-28.92,41.08Zm0,0Zm7.75,5.95a13.55,13.55,0,0,0-2.69.26m2.69-.26h0v.25m0-.25h0v.25m0-.25a14.69,14.69,0,0,1,7.4,2h0a14.63,14.63,0,0,1,5.41,5.41m-15.5-7.11H7164m-2.69,0a39,39,0,0,1-.43-6.2h0a39,39,0,0,1,25.16-36.47,14.73,14.73,0,0,0,7.92,8.5l.1-.23-.1.23a14.71,14.71,0,0,0,19.77-8.5A39,39,0,0,1,7232,7184l.2-.14-.2.14a39,39,0,0,1,7,22.26h0a38.59,38.59,0,0,1-.51,6.26,14.7,14.7,0,0,0-13.82,23.94,38.74,38.74,0,0,1-24.65,8.78h0a39,39,0,0,1-24.67-8.81,14.14,14.14,0,0,0,3-5.75,14.44,14.44,0,0,0-1.45-11.11m-15.5-7.11,15.28,7.23m-12.59-7.24a14.43,14.43,0,0,1,12.59,7.24m.22-.12h0l-.22.12m.22-.12h0l-.22.12m23.3-64.81h0a10.06,10.06,0,0,1,10.07,9.22v.81h0a9.93,9.93,0,0,1-.52,3.2A10.07,10.07,0,0,1,7204,7174l.1.23-.1-.23a10.07,10.07,0,0,1-13.54-5.91h0a10,10,0,0,1-.57-3.16v-.81a10.11,10.11,0,0,1,3.21-6.59h0A10.1,10.1,0,0,1,7199.93,7154.88Zm-29.94,64,.15-.2-.15.2a10,10,0,0,1-.83,16.74l-.69.37a10.08,10.08,0,0,1-10.07-17.31l.69-.45a9.83,9.83,0,0,1,3.06-1.14A10.06,10.06,0,0,1,7170,7218.84Zm74.37,13.07h0a9.94,9.94,0,0,1-13,4h0l-.71-.37a9.67,9.67,0,0,1-2.53-2,10,10,0,0,1,4.91-16.28h0a9.5,9.5,0,0,1,2.64-.46,9,9,0,0,1,2,.2h0a9.45,9.45,0,0,1,3.05,1.14l.7.45h0a10,10,0,0,1,4,5.66A10.09,10.09,0,0,1,7244.36,7231.91Z" transform="translate(-7149.41 -7150)"/></svg>