<svg id="Layer_1" data-name="Layer 1" xmlns="http://www.w3.org/2000/svg" xmlns:xlink="http://www.w3.org/1999/xlink" viewBox="0 0 98 105.78"><defs><style>.cls-1{fill:url(#radial-gradient);}.cls-2{fill:url(#radial-gradient-2);}.cls-3{fill:url(#radial-gradient-3);}.cls-4{fill:url(#radial-gradient-4);}.cls-5{fill:url(#radial-gradient-5);}.cls-6{fill:url(#radial-gradient-6);}.cls-7{fill:url(#radial-gradient-7);}</style><radialGradient id="radial-gradient" cx="7002.36" cy="7441.92" r="1" gradientTransform="matrix(55.82, -22.11, -17.74, -44.8, -251636.96, 495426.08)" gradientUnits="userSpaceOnUse"><stop offset="0" stop-color="#2793db"/><stop offset="1" stop-color="#003050"/></radialGradient><radialGradient id="radial-gradient-2" cx="7002.95" cy="7414.75" r="1" gradientTransform="matrix(9.35, -6.09, -6.52, -10.02, -9940.34, 124088.26)" xlink:href="#radial-gradient"/><radialGradient id="radial-gradient-3" cx="6999.16" cy="7442" r="1" gradientTransform="matrix(30.47, -29.8, -34.92, -35.7, 53754.44, 481464.81)" xlink:href="#radial-gradient"/><radialGradient id="radial-gradient-4" cx="6971.48" cy="7221.08" r="1" gradientTransform="matrix(1.16, -1.08, -1.26, -1.36, 8209.45, 24509.86)" xlink:href="#radial-gradient"/><radialGradient id="radial-gradient-5" cx="6971.48" cy="7221.08" r="1" gradientTransform="matrix(1.16, -1.08, -1.26, -1.36, 8225.61, 24526.02)" xlink:href="#radial-gradient"/><radialGradient id="radial-gradient-6" cx="6971.48" cy="7221.08" r="1" gradientTransform="matrix(1.16, -1.08, -1.26, -1.36, 8209.45, 24542.18)" xlink:href="#radial-gradient"/><radialGradient id="radial-gradient-7" cx="6971.48" cy="7221.08" r="1" gradientTransform="matrix(1.16, -1.08, -1.26, -1.36, 8193.29, 24526.02)" xlink:href="#radial-gradient"/></defs><path class="cls-1" d="M7238,7219.46c-.72-.22-17.63-6-21.85-7.28l-1.24-.4-15.41,15.36-15.41-15.36-1.24.4c-4.26,1.33-21.13,7.06-21.84,7.28-10.44,3.51-10.57,10.61-10.53,11.72v12.88c.85,7.54,6.09,9.5,8.84,9.5h80.1c2.75,0,8.17-1.82,9.06-9.5v-12.92c0-1.07-.09-8.17-10.48-11.68Zm6.21,11.5v12.74c-.66,5.33-4,5.59-4.71,5.59h-80.05c-.13.05-4,.05-4.66-5.59V7231c0-.05-.18-4.8,7.63-7.46.18-.05,14.92-5.06,20.52-6.88l16.56,16.56,16.56-16.56c5.59,1.82,20.38,6.83,20.51,6.88,7.68,2.57,7.64,7.15,7.64,7.46Z" transform="translate(-7150.5 -7147.78)"/><path class="cls-2" d="M7207.47,7169.15a.82.82,0,0,0-1.2,0l-9.19,9.19-4.31-4.3a.8.8,0,0,0-1.2,0,.85.85,0,0,0,0,1.2l4.89,4.88a.86.86,0,0,0,.62.27.87.87,0,0,0,.62-.27l9.81-9.81a.8.8,0,0,0,0-1.16Z" transform="translate(-7150.5 -7147.78)"/><path class="cls-3" d="M7222.7,7183a2.14,2.14,0,0,0,2.62-1.51,26.73,26.73,0,0,0-34.63-32.19,28.54,28.54,0,0,0-7,3.68,26.39,26.39,0,0,0-10.61,17.49,26.76,26.76,0,0,0,40.8,26.6l-1.64,4.09a2.14,2.14,0,0,0,1.2,2.79,2.45,2.45,0,0,0,.8.14,2.25,2.25,0,0,0,2-1.34l3.5-8.83a2.14,2.14,0,0,0-1.2-2.8l-8.83-3.51a2.15,2.15,0,0,0-1.6,4l3.91,1.55a22.52,22.52,0,0,1-30.64-5.32,22.47,22.47,0,0,1,4.84-31.4,22.54,22.54,0,0,1,5.91-3.1,22.46,22.46,0,0,1,29.08,27,2.18,2.18,0,0,0,1.51,2.62Z" transform="translate(-7150.5 -7147.78)"/><path class="cls-4" d="M7200.54,7158.36a1,1,0,1,1-2,0A1,1,0,0,1,7200.54,7158.36Z" transform="translate(-7150.5 -7147.78)"/><path class="cls-5" d="M7216.7,7174.53a1,1,0,1,1-2,0A1,1,0,1,1,7216.7,7174.53Z" transform="translate(-7150.5 -7147.78)"/><path class="cls-6" d="M7200.54,7190.69a1,1,0,0,1-2,0A1,1,0,1,1,7200.54,7190.69Z" transform="translate(-7150.5 -7147.78)"/><path class="cls-7" d="M7184.38,7174.53a1,1,0,0,1-2,0A1,1,0,1,1,7184.38,7174.53Z" transform="translate(-7150.5 -7147.78)"/></svg>