<svg id="Layer_2" data-name="Layer 2" xmlns="http://www.w3.org/2000/svg" xmlns:xlink="http://www.w3.org/1999/xlink" viewBox="0 0 99 99"><defs><style>.cls-1,.cls-2,.cls-3,.cls-4{stroke:#fff;stroke-width:0.5px;}.cls-1{fill:url(#radial-gradient);}.cls-2{fill:url(#radial-gradient-2);}.cls-3{fill:url(#radial-gradient-3);}.cls-4{fill:url(#radial-gradient-4);}</style><radialGradient id="radial-gradient" cx="6999.06" cy="7439.55" r="1" gradientTransform="matrix(24.49, -22.75, -26.59, -28.62, 33595.13, 379324.49)" gradientUnits="userSpaceOnUse"><stop offset="0" stop-color="#2793db"/><stop offset="1" stop-color="#003050"/></radialGradient><radialGradient id="radial-gradient-2" cx="6999.06" cy="7439.55" r="1" gradientTransform="matrix(24.49, -22.75, -26.59, -28.62, 33651.14, 379324.49)" xlink:href="#radial-gradient"/><radialGradient id="radial-gradient-3" cx="6999.07" cy="7439.55" r="1" gradientTransform="matrix(24.49, -22.75, -26.59, -28.62, 33595.13, 379380.5)" xlink:href="#radial-gradient"/><radialGradient id="radial-gradient-4" cx="6999.06" cy="7439.55" r="1" gradientTransform="matrix(24.49, -22.75, -26.59, -28.62, 33651.14, 379380.5)" xlink:href="#radial-gradient"/></defs><path class="cls-1" d="M7157.28,7150.75h29.43a6.54,6.54,0,0,1,6.53,6.53v29.43a6.46,6.46,0,0,1-6.53,6.53h-29.43a6.46,6.46,0,0,1-6.53-6.53v-29.43A6.46,6.46,0,0,1,7157.28,7150.75Zm29.43,37.57a1.54,1.54,0,0,0,1.61-1.61v-29.43a1.54,1.54,0,0,0-1.61-1.61h-29.43a1.54,1.54,0,0,0-1.61,1.61v29.43a1.54,1.54,0,0,0,1.61,1.61Z" transform="translate(-7150.5 -7150.5)"/><path class="cls-2" d="M7213.29,7150.75h29.43a6.64,6.64,0,0,1,6.53,6.53v29.43a6.46,6.46,0,0,1-6.53,6.53h-29.43a6.46,6.46,0,0,1-6.53-6.53v-29.43A6.46,6.46,0,0,1,7213.29,7150.75Zm29.43,37.57a1.54,1.54,0,0,0,1.61-1.61v-29.43a1.54,1.54,0,0,0-1.61-1.61h-29.43a1.54,1.54,0,0,0-1.61,1.61h0v29.43a1.54,1.54,0,0,0,1.61,1.61Z" transform="translate(-7150.5 -7150.5)"/><path class="cls-3" d="M7157.28,7206.76h29.43a6.46,6.46,0,0,1,6.53,6.53v29.43a6.46,6.46,0,0,1-6.53,6.53h-29.43a6.46,6.46,0,0,1-6.53-6.53v-29.43A6.46,6.46,0,0,1,7157.28,7206.76Zm29.43,37.57a1.54,1.54,0,0,0,1.61-1.61v-29.43a1.54,1.54,0,0,0-1.61-1.61h-29.43a1.54,1.54,0,0,0-1.61,1.61v29.43a1.54,1.54,0,0,0,1.61,1.61Z" transform="translate(-7150.5 -7150.5)"/><path class="cls-4" d="M7213.29,7206.76h29.43a6.54,6.54,0,0,1,6.53,6.53v29.43a6.46,6.46,0,0,1-6.53,6.53h-29.43a6.46,6.46,0,0,1-6.53-6.53v-29.43A6.46,6.46,0,0,1,7213.29,7206.76Z" transform="translate(-7150.5 -7150.5)"/></svg>