<svg id="Layer_4" data-name="Layer 4" xmlns="http://www.w3.org/2000/svg" xmlns:xlink="http://www.w3.org/1999/xlink" viewBox="0 0 115 100.31"><defs><style>.cls-1{fill:url(#radial-gradient);}.cls-2{fill:url(#radial-gradient-2);}</style><radialGradient id="radial-gradient" cx="6999.7" cy="7444.7" r="1" gradientTransform="matrix(46.06, -42.06, -49.09, -53.76, 50261.81, 701831.96)" gradientUnits="userSpaceOnUse"><stop offset="0" stop-color="#2793db"/><stop offset="1" stop-color="#003050"/></radialGradient><radialGradient id="radial-gradient-2" cx="6999.7" cy="7444.7" r="1" gradientTransform="matrix(46.06, -42.06, -49.09, -53.76, 50227.68, 701811.14)" xlink:href="#radial-gradient"/></defs><path class="cls-1" d="M7254.62,7244.39h-75.1l2.88,2.88v-73.72l-2.88,2.88h75.1l-2.88-2.88v73.72c0,3.72,5.76,3.72,5.76,0v-73.72a2.93,2.93,0,0,0-2.88-2.88h-75.1a2.93,2.93,0,0,0-2.88,2.88v73.72a2.92,2.92,0,0,0,2.88,2.88h75.1C7258.34,7250.15,7258.34,7244.39,7254.62,7244.39Z" transform="translate(-7142.5 -7149.85)"/><path class="cls-2" d="M7179.55,7223.57h-34.17l2.88,2.88v-73.72l-2.88,2.88h75.1l-2.88-2.88v20.82c0,3.72,5.76,3.72,5.76,0v-20.82a2.92,2.92,0,0,0-2.88-2.88h-75.1a2.93,2.93,0,0,0-2.88,2.88v73.72a2.93,2.93,0,0,0,2.88,2.88h34.17C7183.23,7229.33,7183.26,7223.57,7179.55,7223.57Z" transform="translate(-7142.5 -7149.85)"/></svg>